Coordinates
version=1
nRows=16
nColumns=38
inDegrees=yes

Units are S.I. units (second, meters, Newtons, ...)
Angles are in degrees.

endheader
time	first_body_tilt	first_body_list	first_body_rotation	first_body_tx	first_body_ty	first_body_tz	hip_flexion_r	hip_adduction_r	hip_rotation_r	knee_angle_r	ankle_angle_r	subtalar_angle_r	mtp_angle_r	hip_flexion_l	hip_adduction_l	hip_rotation_l	knee_angle_l	ankle_angle_l	subtalar_angle_l	mtp_angle_l	lumbar_extension	lumbar_bending	lumbar_rotation	arm_flex_r	arm_add_r	arm_rot_r	elbow_flex_r	pro_sup_r	wrist_flex_r	wrist_dev_r	arm_flex_l	arm_add_l	arm_rot_l	elbow_flex_l	pro_sup_l	wrist_flex_l	wrist_dev_l
0.320000	1.362592	-2.432190	10.807142	0.608620	0.020686	-0.059700	22.717804	-5.309117	-0.581476	-70.816233	-4.661562	0.000000	0.000000	18.310518	2.932271	-11.833543	-21.802693	7.729527	0.000000	0.000000	-2.653155	-4.894741	2.434026	-10.371472	-9.027677	-0.365314	30.031811	112.020652	0.000000	0.000000	8.505314	-11.663833	-4.355769	28.775089	112.929760	0.000000	0.000000	
0.325000	1.318812	-2.396121	10.947337	0.608438	0.020618	-0.059607	23.282546	-5.156977	-0.726306	-70.999556	-4.467448	0.000000	0.000000	17.789471	2.902560	-11.709464	-21.479027	7.832248	0.000000	0.000000	-2.728420	-4.750393	2.154366	-10.631840	-9.072173	-0.642485	30.060561	112.012610	0.000000	0.000000	8.790704	-11.713209	-4.408046	28.888010	112.897460	0.000000	0.000000	
0.330000	1.275056	-2.359871	11.090330	0.608233	0.020547	-0.059505	23.829757	-5.006340	-0.874753	-71.117662	-4.250437	0.000000	0.000000	17.263013	2.872245	-11.584684	-21.140237	7.927149	0.000000	0.000000	-2.801536	-4.605799	1.876097	-10.890623	-9.117857	-0.919264	30.103246	111.999472	0.000000	0.000000	9.075848	-11.756485	-4.480833	29.005563	112.867906	0.000000	0.000000	
0.335000	1.230339	-2.323362	11.235816	0.608003	0.020473	-0.059393	24.360299	-4.858778	-1.026104	-71.172250	-4.000864	0.000000	0.000000	16.732498	2.841926	-11.460271	-20.787519	8.013923	0.000000	0.000000	-2.871587	-4.462301	1.600544	-11.148165	-9.164634	-1.192462	30.158787	111.980829	0.000000	0.000000	9.360039	-11.794195	-4.571650	29.129378	112.842220	0.000000	0.000000	
0.340000	1.183801	-2.286419	11.383243	0.607750	0.020398	-0.059277	24.875219	-4.715093	-1.179702	-71.164130	-3.716553	0.000000	0.000000	16.199466	2.811576	-11.337098	-20.422230	8.092318	0.000000	0.000000	-2.937746	-4.320632	1.329303	-11.404867	-9.212231	-1.460025	30.226163	111.957170	0.000000	0.000000	9.642313	-11.827076	-4.676494	29.261496	112.821073	0.000000	0.000000	
0.345000	1.134861	-2.248789	11.531783	0.607478	0.020322	-0.059160	25.375547	-4.575544	-1.334963	-71.093420	-3.401321	0.000000	0.000000	15.665503	2.780814	-11.215765	-20.045763	8.162237	0.000000	0.000000	-2.999346	-4.181133	1.064150	-11.661210	-9.260180	-1.721209	30.304590	111.929689	0.000000	0.000000	9.921554	-11.855900	-4.790616	29.404193	112.804621	0.000000	0.000000	
0.350000	1.083321	-2.210183	11.680356	0.607196	0.020247	-0.059046	25.862149	-4.440087	-1.491377	-70.959831	-3.062845	0.000000	0.000000	15.132150	2.749178	-11.096571	-19.659496	8.223827	0.000000	0.000000	-3.055919	-4.043983	0.806933	-11.917732	-9.307824	-1.976604	30.393617	111.899957	0.000000	0.000000	10.196641	-11.881327	-4.909289	29.559698	112.792544	0.000000	0.000000	
0.355000	1.029386	-2.170312	11.827713	0.606912	0.020172	-0.058942	26.335650	-4.308593	-1.648485	-70.762992	-2.710391	0.000000	0.000000	14.600872	2.716344	-10.979542	-19.264814	8.277537	0.000000	0.000000	-3.107188	-3.909423	0.559440	-12.174955	-9.354342	-2.227980	30.493095	111.869568	0.000000	0.000000	10.466600	-11.903818	-5.028418	29.729883	112.784148	0.000000	0.000000	
0.360000	0.973600	-2.128922	11.972567	0.606639	0.020096	-0.058851	26.796428	-4.181007	-1.805830	-70.502714	-2.352831	0.000000	0.000000	14.073088	2.682271	-10.864507	-18.863197	8.324150	0.000000	0.000000	-3.153036	-3.777909	0.323271	-12.433283	-9.398809	-2.477952	30.603052	111.839831	0.000000	0.000000	10.730728	-11.923614	-5.144895	29.915984	112.778522	0.000000	0.000000	
0.365000	0.916715	-2.085808	12.113731	0.606388	0.020020	-0.058777	27.244679	-4.057446	-1.962904	-70.179184	-1.997219	0.000000	0.000000	13.550233	2.647253	-10.751185	-18.456355	8.364781	0.000000	0.000000	-3.193441	-3.650189	0.099706	-12.692879	-9.440279	-2.729489	30.723485	111.811560	0.000000	0.000000	10.988673	-11.940783	-5.256685	30.118428	112.774707	0.000000	0.000000	
0.370000	0.859527	-2.040821	12.250240	0.606170	0.019944	-0.058723	27.680497	-3.938220	-2.119094	-69.793041	-1.648049	0.000000	0.000000	13.033820	2.611889	-10.639254	-18.046339	8.400839	0.000000	0.000000	-3.228416	-3.527283	-0.110411	-12.953556	-9.477887	-2.985351	30.854142	111.784982	0.000000	0.000000	11.240441	-11.955317	-5.362672	30.336800	112.771851	0.000000	0.000000	
0.375000	0.802719	-1.993860	12.381410	0.605991	0.019867	-0.058690	28.103936	-3.823794	-2.273652	-69.345339	-1.307167	0.000000	0.000000	12.525447	2.576989	-10.528380	-17.635590	8.433963	0.000000	0.000000	-3.257966	-3.410385	-0.306754	-13.214726	-9.510938	-3.247555	30.994344	111.759773	0.000000	0.000000	11.486333	-11.967237	-5.462376	30.569970	112.769328	0.000000	0.000000	
0.380000	0.746738	-1.944861	12.506842	0.605853	0.019791	-0.058677	28.515031	-3.714716	-2.425697	-68.837423	-0.974202	0.000000	0.000000	12.026725	2.543458	-10.418192	-17.226871	8.465931	0.000000	0.000000	-3.282080	-3.300700	-0.489546	-13.475407	-9.538974	-3.516998	31.142902	111.735174	0.000000	0.000000	11.726817	-11.976676	-5.555602	30.816350	112.766805	0.000000	0.000000	
0.385000	0.691753	-1.893790	12.626351	0.605754	0.019716	-0.058681	28.913738	-3.611512	-2.574252	-68.270735	-0.647327	0.000000	0.000000	11.539109	2.512172	-10.308224	-16.823072	8.498552	0.000000	0.000000	-3.300765	-3.199269	-0.659537	-13.734318	-9.561787	-3.793320	31.298157	111.710163	0.000000	0.000000	11.962358	-11.983924	-5.642147	31.074234	112.764238	0.000000	0.000000	
0.390000	0.637676	-1.840642	12.739884	0.605687	0.019643	-0.058701	29.299817	-3.514590	-2.718312	-67.646606	-0.324134	0.000000	0.000000	11.063653	2.483874	-10.197863	-16.426896	8.533550	0.000000	0.000000	-3.314124	-3.106806	-0.817906	-13.990021	-9.579383	-4.075048	31.458114	111.683645	0.000000	0.000000	12.193245	-11.989428	-5.721589	31.342158	112.761819	0.000000	0.000000	
0.395000	0.584265	-1.785458	12.847429	0.605641	0.019572	-0.058731	29.672684	-3.424154	-2.856923	-66.966060	-0.002439	0.000000	0.000000	10.600738	2.459115	-10.086334	-16.040491	8.572447	0.000000	0.000000	-3.322449	-3.023588	-0.966114	-14.241092	-9.591894	-4.360003	31.620648	111.654616	0.000000	0.000000	12.419451	-11.993737	-5.793192	31.619184	112.759851	0.000000	0.000000	
